# xmcd
#
# Track frame offsets:
#	150
#	7646
#	20813
#	45020
#	60263
#	78853
#	91330
#	111492
#	122258
#	141310
#	154564
#	171724
#
# Disc length: 2436 seconds
#
# Revision: 1
# Processed by: cddbd v1.5.2PL0 Copyright (c) Steve Scherf et al.
# Submitted via: audiograbber 1.83.01
#
DISCID=8609820c
DTITLE=Peter Crow C. and the Weed Whackers - Evil Queen of Diamonds
DYEAR=2010
DGENRE=Blues
TTITLE0=Weed Whackers' Romp
TTITLE1=Mellow Apples
TTITLE2=Evil Queen Of Diamond
TTITLE3=You Go To Take Sick And Die One of These Days
TTITLE4=St. James Infirmary
TTITLE5=There's A Bright Side Somewhere
TTITLE6=Big Mama's Door
TTITLE7=Nagging Blues
TTITLE8=Kokomo
TTITLE9=One Dime Blues
TTITLE10=Crying
TTITLE11=Neighborhood
EXTD=YEAR: 2010
EXTT0=
EXTT1=
EXTT2=
EXTT3=
EXTT4=
EXTT5=
EXTT6=
EXTT7=
EXTT8=
EXTT9=
EXTT10=
EXTT11=
PLAYORDER=
